<?xml version="1.0" standalone="no"?>
<!DOCTYPE svg PUBLIC "-//W3C//DTD SVG 20010904//EN"
 "http://www.w3.org/TR/2001/REC-SVG-20010904/DTD/svg10.dtd">
<svg version="1.0" xmlns="http://www.w3.org/2000/svg"
 width="1280.000000pt" height="1280.000000pt" viewBox="0 0 1280.000000 1280.000000"
 preserveAspectRatio="xMidYMid meet">
<metadata>
Created by potrace 1.11, written by Peter Selinger 2001-2013
</metadata>
<g transform="translate(0.000000,1280.000000) scale(0.100000,-0.100000)"
fill="#000000" stroke="none">
<path d="M6081 12721 c-13 -9 -15 -77 -6 -266 1 -38 6 -155 10 -260 7 -205 11
-310 20 -535 8 -202 14 -370 20 -540 3 -80 7 -194 10 -255 3 -60 7 -186 10
-280 3 -93 8 -208 10 -255 2 -47 7 -171 10 -275 l7 -191 -24 0 c-34 -1 -191
-14 -214 -18 -10 -2 -41 -7 -68 -10 -172 -23 -396 -79 -600 -148 -65 -22 -121
-36 -125 -31 -4 4 -130 307 -281 673 -150 366 -316 771 -370 900 -53 129 -173
420 -265 645 -93 226 -173 416 -178 423 -14 18 -45 15 -56 -6 -7 -13 59 -181
275 -707 371 -900 524 -1273 678 -1645 70 -168 128 -308 129 -312 1 -5 -21
-19 -49 -32 l-52 -24 -58 121 c-31 67 -72 154 -89 192 -18 39 -52 111 -75 160
-23 50 -57 122 -75 160 -18 39 -111 239 -208 445 -96 206 -191 409 -210 450
-19 41 -119 255 -222 475 -103 220 -198 424 -212 453 -26 57 -45 71 -68 52
-23 -19 -19 -35 39 -159 30 -64 72 -154 94 -201 22 -47 88 -188 147 -315 59
-126 124 -266 145 -310 35 -75 136 -292 217 -464 19 -42 50 -107 68 -146 18
-38 53 -113 77 -165 284 -605 359 -773 352 -780 -5 -5 -47 -29 -94 -53 -177
-91 -419 -251 -562 -372 -43 -36 -81 -65 -85 -64 -5 0 -107 113 -228 251 -121
137 -229 260 -240 272 -11 12 -35 40 -54 62 -19 21 -65 73 -102 114 -37 41
-76 84 -86 96 -15 18 -127 144 -158 178 -5 6 -44 49 -85 96 -64 72 -108 122
-155 174 -6 6 -42 47 -80 91 -39 44 -88 100 -110 124 -49 54 -45 49 -130 146
-38 44 -86 98 -106 120 -20 22 -92 103 -160 180 -68 77 -126 142 -129 145 -3
3 -37 41 -75 85 -76 87 -127 143 -196 219 -41 44 -48 47 -67 37 -12 -6 -22
-19 -22 -28 0 -11 88 -122 130 -163 3 -3 57 -63 120 -135 63 -71 131 -148 151
-170 20 -22 98 -110 174 -195 76 -85 152 -171 169 -190 17 -19 65 -73 106
-120 41 -47 77 -87 80 -90 3 -3 57 -63 120 -135 63 -71 129 -146 146 -165 17
-19 163 -183 324 -365 161 -181 314 -353 339 -381 25 -28 73 -81 106 -119 33
-38 65 -73 70 -79 6 -6 30 -33 54 -60 l43 -48 -63 -59 -64 -59 -299 303 c-576
583 -1403 1414 -1414 1421 -16 10 -52 -11 -52 -30 0 -9 183 -199 406 -424 223
-224 523 -526 666 -671 143 -145 347 -352 453 -459 l194 -195 -28 -28 -28 -28
-30 28 c-32 29 -172 156 -258 233 -27 25 -52 48 -55 51 -3 3 -31 29 -63 57
-49 44 -61 51 -77 42 -32 -17 -24 -49 22 -89 22 -20 62 -55 87 -78 25 -24 108
-98 183 -165 75 -68 137 -127 137 -132 1 -5 -6 -18 -15 -28 -16 -17 -19 -16
-73 29 -31 26 -58 50 -61 53 -5 5 -139 121 -180 156 -117 100 -439 378 -499
432 -42 38 -84 40 -89 5 -3 -21 34 -55 670 -602 99 -85 165 -148 161 -155 -4
-6 -32 -45 -64 -86 -79 -104 -176 -255 -248 -384 -33 -61 -62 -114 -63 -118
-2 -5 -28 3 -58 18 -30 15 -95 46 -145 69 -49 24 -153 73 -230 110 -77 37
-185 89 -240 115 -55 26 -163 78 -240 115 -268 129 -371 178 -460 220 -49 24
-162 77 -250 120 -88 42 -209 101 -270 130 -60 29 -261 124 -445 212 -184 89
-344 164 -356 167 -26 8 -48 -15 -40 -42 4 -11 38 -33 84 -55 42 -20 163 -77
267 -127 105 -51 222 -107 260 -125 39 -18 138 -65 220 -105 280 -135 420
-202 500 -240 44 -21 157 -75 250 -120 94 -45 202 -97 240 -115 39 -18 126
-60 195 -93 69 -33 249 -119 400 -191 151 -73 276 -133 277 -135 9 -9 -58
-141 -69 -138 -7 2 -535 213 -1173 469 -638 256 -1243 499 -1344 539 -101 41
-192 74 -202 74 -21 0 -41 -31 -30 -48 5 -9 1046 -436 1211 -496 54 -20 1515
-608 1518 -611 5 -5 -32 -105 -39 -105 -3 0 -91 30 -195 66 -104 36 -265 92
-359 124 -199 68 -682 235 -840 290 -60 21 -130 45 -155 53 -25 9 -130 45
-235 81 -104 36 -197 63 -207 60 -19 -6 -25 -49 -8 -59 6 -4 113 -42 238 -85
125 -43 234 -81 242 -84 15 -5 153 -52 440 -151 304 -104 914 -316 988 -342
58 -21 72 -29 66 -42 -3 -9 -20 -63 -36 -121 -16 -58 -31 -106 -32 -107 -1 -1
-85 27 -187 63 -420 149 -419 149 -419 99 0 -27 17 -34 365 -155 116 -41 213
-76 217 -80 4 -3 1 -44 -7 -90 -28 -158 -45 -294 -51 -410 -3 -63 -7 -128 -8
-145 l-2 -30 -74 1 c-89 1 -319 14 -340 19 -8 2 -71 7 -140 10 -69 4 -141 8
-160 10 -19 2 -84 6 -145 10 -60 3 -130 8 -155 10 -64 5 -222 15 -305 20 -38
2 -104 7 -145 10 -77 5 -156 11 -292 20 -72 5 -131 9 -293 20 -33 2 -105 7
-160 10 -55 3 -122 8 -150 10 -27 3 -93 7 -145 10 -52 3 -117 8 -145 10 -27 2
-97 7 -155 10 -58 4 -116 8 -131 9 -53 6 -82 -19 -61 -52 11 -16 26 -19 162
-27 63 -3 135 -8 160 -10 64 -5 202 -15 295 -20 44 -3 109 -7 145 -10 147 -10
304 -21 445 -30 50 -3 115 -8 145 -10 30 -2 100 -6 155 -10 55 -3 120 -8 145
-10 25 -3 90 -7 145 -10 55 -3 120 -7 145 -10 25 -2 99 -7 165 -10 66 -4 134
-8 150 -10 17 -2 80 -6 140 -10 61 -3 121 -8 135 -10 14 -2 84 -6 155 -10 72
-4 138 -9 149 -11 10 -2 49 -4 87 -5 39 -1 70 -6 72 -13 2 -6 5 -45 6 -86 1
-41 4 -105 7 -142 l6 -68 -28 -1 c-16 0 -40 -2 -54 -4 -14 -1 -68 -6 -120 -9
-103 -7 -196 -14 -275 -21 -27 -3 -93 -7 -145 -10 -52 -3 -115 -7 -140 -10
-25 -2 -81 -7 -125 -10 -44 -3 -102 -8 -130 -10 -27 -3 -86 -7 -130 -10 -44
-3 -102 -7 -130 -10 -27 -2 -86 -7 -130 -10 -44 -3 -102 -8 -130 -10 -27 -2
-90 -7 -140 -10 -49 -3 -115 -8 -145 -11 -30 -2 -93 -6 -140 -9 -102 -7 -132
-13 -142 -28 -26 -41 14 -56 127 -46 50 4 132 10 183 13 51 4 112 9 135 11 23
2 83 6 132 10 99 6 189 13 280 20 33 3 89 7 125 10 68 5 160 12 270 20 36 3
92 7 125 10 33 2 96 7 140 10 77 5 170 12 265 20 25 2 86 6 135 10 50 3 113 8
142 11 l51 6 7 -48 c7 -56 24 -151 31 -175 4 -13 -6 -18 -43 -24 -26 -5 -54
-9 -61 -11 -8 -1 -46 -8 -85 -14 -40 -7 -173 -29 -297 -50 -124 -21 -241 -41
-260 -44 -19 -3 -163 -28 -320 -55 -157 -27 -303 -52 -325 -55 -278 -42 -325
-55 -325 -91 0 -30 43 -30 203 -3 309 54 582 100 612 105 17 2 41 6 55 9 14 2
131 22 260 44 129 22 246 42 260 44 255 45 334 56 340 49 4 -4 17 -51 29 -103
25 -103 92 -311 140 -430 l29 -74 -76 -36 c-160 -76 -243 -116 -451 -217 -117
-56 -215 -103 -216 -103 -2 0 -110 -52 -240 -115 -131 -63 -238 -115 -240
-115 -1 0 -101 -48 -221 -106 -121 -58 -250 -121 -289 -139 -38 -18 -142 -68
-230 -110 -88 -43 -209 -101 -270 -130 -256 -121 -284 -136 -288 -148 -7 -18
12 -47 30 -47 18 0 12 -3 332 152 123 59 225 108 226 108 2 0 92 43 201 96
110 53 244 118 299 144 55 26 168 80 250 120 147 71 261 125 460 220 55 26
168 80 250 120 83 40 186 89 230 110 44 21 116 55 160 77 44 21 88 42 97 46
14 5 27 -12 66 -91 27 -53 70 -134 96 -180 27 -46 47 -84 45 -86 -4 -3 -146
-99 -489 -331 -113 -76 -245 -166 -295 -200 -49 -34 -215 -146 -367 -249 -153
-103 -280 -191 -283 -196 -11 -18 6 -50 27 -50 17 0 288 178 663 435 50 34
189 128 310 210 121 82 275 186 343 232 67 47 127 83 132 81 4 -2 43 -52 86
-112 l77 -109 -34 -30 c-19 -17 -69 -63 -112 -103 -79 -74 -90 -96 -55 -117
18 -12 46 9 173 128 l70 66 43 -48 c108 -119 112 -126 88 -140 -11 -6 -91 -77
-190 -168 -6 -5 -49 -44 -96 -85 -112 -99 -159 -142 -179 -160 -9 -9 -52 -47
-95 -85 -44 -39 -87 -77 -96 -85 -18 -17 -106 -95 -330 -295 -85 -75 -171
-152 -190 -169 -19 -18 -123 -110 -230 -205 -169 -151 -329 -293 -364 -326 -6
-5 -31 -28 -56 -49 -25 -22 -83 -74 -130 -116 -47 -42 -134 -121 -195 -175
-60 -54 -114 -106 -119 -116 -10 -20 7 -49 29 -49 11 0 261 218 499 435 6 6
31 28 56 49 25 22 83 74 130 116 47 42 153 137 235 210 83 73 184 164 226 201
41 38 84 76 96 86 11 10 58 52 104 93 184 165 335 300 373 333 12 10 35 31 51
46 17 15 134 119 260 231 127 113 241 215 255 227 l25 23 70 -68 c38 -38 92
-89 119 -114 l49 -45 -99 -120 c-54 -66 -165 -201 -245 -299 -81 -99 -254
-310 -385 -470 -132 -160 -255 -310 -274 -334 -47 -59 -288 -352 -495 -604
-177 -216 -200 -250 -175 -267 27 -17 44 -4 128 96 92 111 98 117 242 295 56
69 109 134 118 145 10 11 109 133 222 270 112 138 209 255 215 261 5 6 24 28
40 50 17 21 45 56 64 78 77 94 106 129 246 301 81 99 164 200 185 225 21 25
89 109 153 187 l114 142 114 -85 c63 -46 127 -95 143 -107 l29 -22 -144 -220
c-128 -195 -646 -987 -940 -1438 -58 -89 -105 -169 -103 -177 1 -8 3 -18 3
-22 1 -5 12 -8 25 -8 26 0 15 -16 328 462 58 90 283 433 498 763 216 330 393
601 395 603 1 1 33 -16 71 -39 100 -61 342 -179 469 -229 61 -24 114 -47 119
-51 5 -4 2 -27 -7 -51 -8 -24 -45 -126 -80 -228 -36 -102 -95 -270 -132 -375
-37 -104 -95 -271 -130 -370 -35 -99 -127 -362 -205 -585 -144 -410 -185 -527
-349 -995 -140 -398 -144 -412 -138 -429 4 -9 17 -16 31 -16 30 0 -16 -124
409 1090 75 212 195 554 267 760 72 206 195 555 272 776 l140 401 79 -23 c44
-13 83 -25 87 -28 5 -3 -28 -144 -73 -313 -46 -169 -149 -558 -230 -863 -81
-305 -164 -618 -185 -695 -158 -589 -155 -575 -137 -593 13 -13 21 -14 35 -6
20 13 33 52 97 299 26 99 53 203 61 230 12 42 251 939 455 1710 28 105 52 195
54 202 3 8 15 9 47 1 110 -25 268 -53 327 -57 10 -1 12 -15 7 -63 -5 -58 -9
-116 -21 -273 -2 -33 -7 -87 -10 -120 -3 -33 -7 -91 -10 -130 -3 -38 -8 -99
-10 -135 -11 -132 -15 -187 -21 -270 -3 -47 -7 -96 -9 -109 -9 -54 46 -86 64
-38 5 13 12 70 16 127 3 58 8 121 10 140 2 19 7 78 10 130 4 52 9 111 10 130
2 19 6 78 10 130 4 52 8 111 10 130 8 79 22 255 24 312 l1 28 73 -6 c39 -4
168 -7 285 -7 l212 0 1 -46 c0 -25 2 -53 4 -62 1 -9 6 -72 10 -140 4 -68 8
-131 10 -139 1 -8 6 -67 9 -130 4 -63 9 -135 11 -160 2 -25 7 -83 10 -130 3
-47 8 -107 10 -135 2 -27 7 -90 10 -140 3 -49 8 -115 10 -145 3 -30 7 -91 10
-135 3 -44 8 -107 10 -140 2 -33 7 -100 10 -150 3 -49 7 -112 10 -140 2 -27 7
-86 10 -130 3 -44 8 -107 10 -140 2 -33 7 -100 10 -150 4 -49 8 -108 10 -130
2 -22 7 -94 11 -160 7 -130 14 -155 44 -155 25 0 42 32 36 67 -3 15 -7 75 -11
133 -3 58 -8 128 -10 155 -8 80 -25 312 -30 410 -3 50 -7 113 -10 140 -2 28
-7 86 -10 130 -3 44 -8 114 -11 155 -3 41 -7 95 -9 120 -2 25 -7 90 -10 145
-4 55 -8 123 -10 150 -2 28 -7 91 -10 140 -3 50 -8 106 -10 125 -2 19 -7 85
-10 145 -4 61 -8 124 -10 140 -2 17 -7 77 -10 135 -4 58 -8 123 -10 145 -1 22
-6 83 -9 136 l-7 96 97 12 c53 6 98 10 100 9 2 -3 17 -91 39 -233 22 -147 107
-695 110 -715 2 -14 18 -115 35 -225 16 -110 35 -227 40 -260 6 -33 12 -73 15
-90 2 -16 9 -59 14 -95 6 -36 12 -81 15 -100 3 -19 17 -109 31 -200 14 -91 28
-176 30 -190 9 -62 37 -243 49 -320 8 -47 19 -121 26 -165 6 -44 16 -102 20
-130 5 -27 12 -70 15 -95 3 -25 10 -70 15 -100 5 -30 12 -73 15 -95 10 -73 14
-89 30 -104 24 -24 50 -2 49 40 -1 27 -20 158 -49 344 -2 11 -11 67 -20 125
-9 58 -18 116 -20 130 -11 68 -27 168 -30 190 -2 14 -11 72 -20 130 -9 58 -18
116 -20 130 -7 50 -106 689 -125 805 -10 66 -22 140 -25 165 -3 25 -12 83 -20
130 -8 47 -26 162 -40 255 -14 94 -27 184 -30 200 -3 17 -7 48 -10 70 -4 22
-8 47 -10 55 -2 8 -7 35 -10 60 -3 25 -15 101 -26 169 -11 68 -17 126 -14 129
3 3 16 7 28 9 94 14 405 96 488 128 12 4 33 -43 108 -242 191 -509 263 -698
274 -711 15 -18 51 -11 55 11 3 15 -211 609 -248 692 -16 35 -100 264 -100
273 0 4 48 28 108 52 120 50 313 146 414 208 l67 40 34 -46 c19 -26 128 -184
242 -352 115 -168 261 -381 325 -475 64 -93 201 -294 305 -445 319 -466 315
-460 335 -460 11 0 24 9 30 19 8 16 -2 38 -64 128 -81 119 -454 664 -536 783
-28 41 -143 209 -254 372 -112 163 -238 346 -279 406 l-76 110 23 15 c23 16
25 14 177 -195 473 -646 445 -610 472 -606 52 7 33 39 -263 444 -161 219 -294
402 -296 408 -2 7 8 19 23 28 16 9 70 50 121 91 l94 75 32 -36 c18 -21 128
-152 246 -292 117 -140 230 -273 249 -295 20 -22 54 -62 76 -89 48 -59 98
-119 105 -126 3 -3 28 -32 55 -65 28 -33 62 -73 76 -90 15 -16 102 -120 195
-230 92 -110 263 -312 378 -449 116 -137 253 -299 304 -360 52 -61 101 -114
110 -117 35 -13 57 34 29 63 -7 7 -22 25 -33 40 -12 15 -41 51 -66 80 -83 96
-232 273 -273 322 -22 27 -45 54 -50 60 -6 6 -58 67 -115 136 -58 69 -107 127
-111 130 -3 3 -27 32 -55 65 -27 33 -61 74 -75 90 -15 17 -80 93 -144 170 -65
77 -137 163 -160 190 -24 28 -136 160 -250 295 -113 135 -262 311 -330 392
-69 80 -126 151 -127 157 -2 5 58 72 132 148 75 76 150 155 167 177 28 35 33
37 50 25 11 -8 236 -187 502 -399 265 -212 490 -386 500 -388 22 -4 43 20 35
41 -3 9 -103 94 -222 189 -120 94 -219 174 -222 177 -3 4 -34 28 -70 56 -36
27 -67 52 -70 55 -3 3 -95 77 -205 164 -110 87 -204 162 -209 167 -5 4 16 40
46 81 30 40 72 99 93 130 25 36 43 54 49 49 6 -5 463 -293 1016 -641 553 -348
1057 -666 1120 -706 63 -39 122 -73 130 -74 31 -5 40 1 40 24 0 30 13 21 -325
233 -148 94 -522 329 -830 523 -308 194 -654 412 -770 485 -115 72 -242 153
-282 178 l-72 46 53 88 c29 48 78 141 110 206 33 67 63 116 70 114 22 -9 822
-349 851 -362 17 -8 210 -90 430 -183 633 -269 1051 -446 1315 -559 135 -58
256 -105 269 -106 32 -3 51 27 30 48 -8 9 -281 128 -605 266 -324 138 -735
313 -914 389 -179 76 -554 236 -835 355 -280 119 -513 219 -516 223 -4 4 15
66 42 137 26 72 57 162 69 202 l20 72 48 -14 c56 -16 698 -185 721 -190 18 -4
347 -91 486 -129 98 -27 291 -76 315 -81 40 -7 55 49 18 65 -13 5 -153 44
-313 86 -159 41 -324 85 -365 96 -231 61 -801 212 -835 220 -22 5 -44 13 -48
17 -6 6 19 148 28 159 2 2 984 -174 1185 -213 41 -8 91 -17 110 -20 19 -3 69
-12 110 -20 41 -8 91 -17 110 -20 19 -3 55 -9 80 -14 25 -5 74 -15 110 -21 36
-6 85 -15 110 -20 83 -16 265 -49 307 -55 35 -6 42 -4 47 13 14 43 -14 58
-149 78 -22 3 -87 15 -145 26 -58 10 -152 28 -210 38 -58 11 -166 30 -240 44
-74 14 -147 27 -163 30 -15 3 -54 10 -87 16 -33 6 -72 13 -87 16 -115 20
-1015 185 -1041 190 -33 7 -34 8 -28 48 8 54 16 114 20 151 2 17 8 29 12 28 5
0 45 -4 89 -8 44 -3 87 -8 95 -10 8 -2 51 -7 95 -11 44 -3 87 -7 95 -9 8 -1
49 -6 90 -10 41 -3 86 -8 100 -10 14 -2 70 -9 125 -14 256 -26 493 -51 530
-56 17 -2 55 -6 85 -9 30 -3 96 -10 145 -16 50 -5 119 -12 155 -15 36 -4 76
-8 90 -10 14 -2 54 -6 90 -10 36 -4 76 -8 90 -10 14 -2 54 -6 90 -10 73 -6
153 -15 190 -20 14 -2 57 -6 95 -10 39 -3 81 -8 95 -10 14 -2 57 -6 95 -10 39
-4 84 -8 100 -10 17 -2 59 -7 95 -10 36 -4 94 -10 130 -15 50 -6 70 -5 88 6
18 12 20 18 12 34 -13 23 -23 26 -160 40 -243 25 -397 41 -430 45 -19 2 -57 6
-85 9 -27 3 -93 10 -145 16 -52 5 -117 12 -145 15 -27 3 -90 9 -140 15 -96 10
-145 16 -240 25 -33 3 -73 8 -90 10 -16 2 -55 7 -85 10 -30 3 -100 10 -155 15
-55 6 -125 13 -155 16 -30 3 -68 7 -85 9 -16 2 -79 9 -140 15 -60 6 -123 13
-140 15 -16 3 -97 12 -180 20 -354 36 -451 47 -469 49 -17 2 -19 10 -16 72 6
122 5 377 -1 444 -16 158 -20 194 -25 202 -3 4 -3 8 -1 8 2 0 29 5 58 10 30 6
70 13 89 16 19 3 46 7 60 9 14 3 39 7 55 10 410 66 728 117 755 121 19 3 58 9
85 14 28 5 111 19 185 30 74 12 146 23 160 25 14 3 41 8 60 11 19 3 100 16
180 29 80 13 246 40 370 60 124 19 236 37 250 40 46 8 285 47 320 52 19 3 134
21 254 41 170 29 221 41 230 54 8 14 7 21 -6 34 -16 16 -59 14 -198 -11 -33
-6 -205 -33 -255 -40 -22 -4 -47 -8 -55 -10 -8 -2 -35 -7 -60 -10 -25 -3 -126
-20 -225 -36 -99 -16 -193 -32 -210 -34 -16 -3 -57 -9 -90 -15 -124 -21 -681
-111 -710 -115 -16 -2 -75 -11 -130 -20 -55 -9 -113 -19 -130 -22 -16 -2 -82
-13 -145 -23 -63 -11 -133 -22 -155 -25 -22 -3 -51 -8 -65 -11 -14 -2 -36 -6
-49 -9 -14 -2 -59 -9 -100 -15 -42 -6 -177 -28 -301 -49 -124 -20 -227 -36
-228 -35 -2 1 -7 19 -12 38 -7 30 -5 36 9 37 9 0 23 2 31 4 8 1 35 6 60 9 25
4 72 11 105 16 33 5 80 12 105 15 25 3 56 8 70 10 14 3 45 7 70 10 25 3 74 10
110 16 36 6 78 12 93 14 72 10 119 17 352 50 138 20 261 38 275 40 14 2 48 7
75 11 28 3 59 8 70 10 11 2 45 7 75 10 30 3 57 7 60 9 3 2 35 7 70 10 36 4 67
8 70 10 3 2 30 6 60 9 92 11 109 16 115 37 10 30 -13 51 -49 45 -17 -2 -83
-12 -146 -21 -63 -9 -126 -18 -140 -20 -14 -3 -137 -20 -275 -40 -137 -19
-265 -38 -282 -40 -97 -14 -515 -75 -558 -81 -22 -3 -83 -12 -135 -19 -52 -8
-115 -17 -140 -20 -25 -3 -72 -10 -104 -15 -33 -5 -61 -8 -62 -7 -1 1 -16 61
-34 132 -17 72 -54 195 -80 275 -27 80 -46 148 -42 152 4 3 239 97 522 208
283 111 576 226 650 255 182 72 1362 536 1377 542 26 10 25 56 -1 66 -13 5
-21 2 -766 -291 -751 -295 -801 -315 -1190 -467 -201 -79 -423 -166 -494 -194
-70 -28 -130 -51 -133 -51 -2 0 -15 26 -29 58 -34 77 -126 258 -164 321 -16
29 -30 56 -30 60 0 8 94 68 775 496 182 114 346 217 365 230 103 66 171 108
445 280 336 210 373 233 396 253 19 15 14 48 -9 57 -19 7 -39 -5 -737 -445
-1085 -684 -1257 -791 -1270 -796 -8 -4 -29 19 -55 57 -34 51 -39 64 -28 75
12 11 364 264 930 668 109 78 200 147 202 154 7 17 -3 39 -21 46 -15 6 -103
-55 -882 -614 l-284 -204 -21 26 c-42 50 -66 83 -66 89 0 4 75 67 168 140 92
74 169 136 172 139 3 3 241 194 530 425 289 231 527 422 530 425 3 3 239 192
525 421 287 229 527 424 535 434 16 19 4 48 -23 53 -8 2 -109 -72 -224 -165
-115 -92 -226 -181 -247 -198 -97 -77 -873 -698 -891 -713 -11 -9 -269 -217
-574 -461 l-553 -443 -25 28 c-43 51 -86 97 -146 161 l-60 63 656 657 c941
944 1117 1123 1117 1137 0 16 -21 36 -37 36 -8 0 -414 -402 -903 -892 l-888
-893 -21 21 c-39 42 -230 194 -337 270 -121 84 -233 153 -369 225 -49 27 -89
52 -88 57 2 10 69 151 178 377 43 88 103 214 135 280 129 269 188 393 430 895
139 289 279 579 310 645 32 66 92 192 135 280 150 311 147 303 121 324 -25 21
-46 -1 -90 -93 -57 -119 -155 -324 -246 -511 -40 -82 -94 -195 -120 -250 -26
-55 -80 -167 -120 -250 -114 -235 -263 -545 -380 -790 -72 -151 -157 -327
-250 -520 -40 -82 -95 -197 -122 -255 -27 -58 -51 -106 -52 -108 -4 -3 -136
57 -136 62 0 4 28 74 40 101 5 11 66 160 135 330 69 171 189 463 265 650 76
187 245 601 375 920 130 319 249 611 265 650 21 50 26 74 19 87 -11 21 -42 24
-56 6 -5 -7 -81 -188 -168 -403 -222 -547 -349 -858 -605 -1485 -122 -300
-247 -608 -278 -685 -31 -77 -57 -141 -58 -143 -1 -2 -59 15 -129 38 -138 45
-358 101 -472 121 -40 7 -73 14 -73 15 0 2 14 95 30 206 17 112 35 232 40 268
5 36 19 126 30 200 11 74 30 198 40 274 11 77 22 149 25 160 2 12 6 39 9 61
10 77 46 320 50 330 7 21 -14 55 -34 55 -32 0 -40 -31 -75 -290 -3 -25 -12
-85 -20 -135 -8 -49 -17 -110 -20 -135 -5 -38 -17 -115 -40 -260 -2 -14 -7
-45 -10 -70 -3 -25 -8 -56 -10 -70 -3 -14 -9 -56 -14 -95 -16 -106 -50 -337
-55 -360 -2 -11 -7 -46 -11 -78 -5 -43 -10 -57 -20 -53 -8 3 -53 8 -102 12
-48 3 -99 8 -113 10 -14 1 -96 3 -182 3 -143 1 -157 3 -156 19 1 21 -12 400
-17 492 -2 36 -6 148 -10 250 -6 184 -10 292 -20 550 -3 74 -7 196 -10 270 -3
74 -7 185 -10 245 -2 61 -7 187 -10 280 -4 94 -8 208 -10 255 -2 47 -6 171
-10 275 -8 219 -16 246 -64 216z m99 -2988 c0 -33 4 -43 20 -48 34 -11 50 12
50 68 l0 50 208 -6 c114 -4 223 -9 242 -12 19 -3 49 -8 66 -10 l31 -5 -17
-113 c-10 -61 -21 -134 -24 -162 -4 -27 -11 -75 -16 -105 -11 -69 -20 -124
-26 -175 -3 -22 -9 -65 -14 -95 -5 -30 -12 -75 -15 -100 -3 -25 -10 -70 -15
-100 -5 -30 -12 -73 -15 -95 -3 -22 -12 -84 -20 -137 -20 -131 -19 -145 6
-153 29 -9 46 11 53 62 3 24 10 71 16 105 8 51 48 319 65 438 2 14 10 70 19
125 44 284 66 436 66 459 0 13 5 28 10 31 13 8 156 -19 315 -60 145 -38 315
-95 448 -150 72 -31 87 -40 82 -55 -3 -10 -37 -81 -75 -158 -69 -140 -73 -152
-71 -184 2 -26 46 -23 63 5 7 12 45 87 82 167 38 80 70 147 73 149 3 5 121
-52 178 -86 222 -131 436 -284 564 -400 l65 -59 -22 -22 c-21 -21 -21 -49 1
-64 12 -7 57 11 57 24 0 25 36 -2 112 -84 47 -51 95 -104 106 -118 l20 -25
-24 -28 c-39 -46 -6 -81 47 -50 30 18 30 18 49 -7 52 -66 180 -247 184 -260 7
-18 26 -5 -349 -240 -159 -100 -295 -189 -302 -197 -15 -19 0 -53 24 -53 8 0
158 90 332 199 174 110 323 202 332 206 11 4 27 -16 61 -77 352 -630 485
-1323 392 -2049 l-17 -126 -36 8 c-28 6 -197 37 -351 64 -21 3 -90 16 -120 22
-250 48 -376 67 -393 60 -20 -7 -22 -40 -4 -55 6 -5 44 -15 82 -21 39 -6 81
-13 95 -16 14 -3 39 -8 55 -11 17 -2 149 -27 295 -54 146 -27 285 -51 310 -55
25 -4 47 -8 49 -10 13 -13 -81 -351 -146 -525 -162 -436 -417 -828 -762 -1171
-120 -119 -325 -294 -389 -332 l-31 -17 -68 94 c-71 99 -619 845 -806 1099
-110 149 -135 169 -156 129 -12 -23 -26 -3 308 -457 535 -729 656 -896 656
-908 0 -16 -211 -142 -370 -221 -345 -171 -725 -282 -1107 -322 l-58 -6 -1 39
c0 21 -2 63 -4 93 -3 30 -7 84 -9 120 -3 36 -8 110 -12 165 -4 55 -8 111 -9
125 -2 14 -3 37 -4 52 -1 34 -35 56 -58 37 -16 -14 -15 -61 12 -394 2 -27 7
-94 10 -147 l7 -98 -68 -1 c-213 -4 -440 3 -515 16 -13 2 -62 9 -109 15 -47 6
-135 22 -197 35 -61 14 -122 26 -135 29 -68 14 -297 88 -423 138 -149 59 -504
241 -505 259 0 6 58 97 288 448 143 218 162 252 152 270 -26 49 -42 29 -276
-329 l-228 -349 -27 17 c-225 142 -549 437 -733 667 -291 365 -509 797 -625
1242 -26 101 -28 113 -13 117 16 5 566 101 642 112 19 3 71 12 115 19 116 21
314 55 355 61 43 7 63 29 49 55 -5 11 -16 19 -23 19 -7 0 -161 -25 -342 -55
-181 -31 -340 -58 -354 -60 -162 -27 -219 -37 -240 -41 -14 -2 -41 -7 -60 -10
-19 -3 -53 -10 -75 -15 -22 -4 -55 -9 -72 -9 -27 0 -33 4 -34 23 0 12 -2 31
-4 42 -34 219 -46 374 -46 576 0 157 3 208 22 374 50 433 189 857 407 1240 97
169 335 502 368 512 6 2 42 -25 80 -59 81 -74 182 -167 245 -223 83 -76 284
-258 339 -309 30 -28 98 -89 150 -136 52 -47 104 -94 116 -105 11 -11 63 -58
114 -105 52 -47 117 -106 144 -132 28 -26 59 -50 69 -54 20 -6 47 11 47 32 0
11 -51 64 -116 121 -12 10 -63 57 -115 104 -52 47 -197 180 -324 295 -126 115
-235 213 -241 219 -18 17 -183 166 -202 184 -11 9 -63 56 -116 105 -53 49
-106 97 -118 107 l-21 19 39 42 c71 81 256 250 369 340 114 90 290 206 450
295 l150 84 12 -28 c7 -15 63 -136 125 -268 103 -218 116 -240 140 -243 47 -6
43 25 -23 164 -63 133 -98 208 -154 331 l-33 72 86 36 c296 125 686 221 977
241 50 3 92 8 94 10 10 9 21 -24 21 -63z"/>
<path d="M8370 7667 c-52 -29 -135 -75 -185 -101 -124 -67 -687 -371 -760
-411 -200 -108 -235 -127 -241 -136 -11 -18 7 -49 28 -49 18 0 187 88 493 255
22 12 132 72 245 132 113 61 237 128 275 148 39 21 104 56 145 78 131 70 152
86 148 110 -5 37 -46 30 -148 -26z"/>
<path d="M5709 5827 c-62 -67 -131 -142 -153 -167 -72 -79 -231 -253 -272
-299 -21 -24 -48 -53 -59 -65 -11 -12 -78 -87 -150 -165 -144 -159 -161 -181
-152 -205 8 -19 53 -21 64 -2 4 7 49 57 98 111 50 54 95 103 100 109 6 6 48
54 95 106 47 52 92 102 100 110 8 8 55 60 105 115 49 55 96 107 105 116 8 8
51 55 95 104 44 49 104 115 133 147 54 60 57 66 44 84 -23 34 -42 22 -153 -99z"/>
<path d="M6360 12315 c-8 -10 -11 -321 -11 -1187 0 -645 0 -1187 0 -1205 1
-23 7 -33 21 -38 52 -17 50 -75 50 1214 0 658 -4 1201 -8 1207 -12 18 -40 23
-52 9z"/>
</g>
</svg>
